<svg version="1.1" id="Layer_1" xmlns="http://www.w3.org/2000/svg" xmlns:xlink="http://www.w3.org/1999/xlink" x="0px" y="0px"
	 width="100%" viewBox="0 0 496 496" enable-background="new 0 0 496 496" xml:space="preserve">
<path fill="#5E657B" opacity="1.000000" stroke="none" 
	d="
M279.767395,188.191559 
	C270.690063,174.815811 259.819061,163.728790 247.082413,154.857468 
	C245.171890,155.306274 244.565887,156.565491 243.726685,157.575150 
	C233.484924,169.897308 221.628983,172.377457 208.569839,162.853073 
	C197.620392,154.867371 186.324646,149.713562 172.740204,149.862061 
	C171.966278,149.870514 171.187332,149.420898 169.733582,148.978317 
	C174.884262,138.329330 184.157593,133.171982 194.669922,128.324188 
	C184.890228,121.434471 178.553162,113.129517 178.604660,101.195183 
	C178.632080,94.841270 179.582535,88.784920 183.375488,82.024406 
	C190.765686,95.360909 205.055130,94.983765 215.934189,101.964035 
	C218.179825,90.626244 221.513367,80.547615 230.247162,73.270355 
	C232.906113,75.057587 232.530548,77.700462 233.156143,79.826424 
	C236.049561,89.658981 240.817413,98.062325 249.025070,104.625061 
	C257.418304,111.336174 263.274902,119.646011 261.279663,131.318893 
	C260.411621,136.397217 257.151764,140.332260 254.198303,145.209732 
	C269.522614,156.738174 282.462097,170.432419 292.954224,187.623749 
	C294.684357,181.713699 295.904510,176.650833 297.640808,171.771606 
	C304.612335,152.180496 317.459320,137.714447 336.062866,128.386856 
	C336.658020,128.088455 337.259064,127.790680 337.882874,127.562393 
	C341.384552,126.280991 345.076721,125.535637 346.887939,129.758072 
	C348.583435,133.710739 346.324005,136.407944 342.706970,138.084503 
	C325.780243,145.930435 314.372681,158.836258 308.167786,176.303925 
	C302.675018,191.766937 303.009735,207.254593 308.411835,222.757233 
	C311.546997,231.754410 312.418701,241.282791 313.150421,250.666534 
	C315.969238,286.815155 306.772644,319.809235 284.594696,348.539978 
	C262.301727,377.419708 232.327820,392.116302 195.837021,393.326508 
	C171.795410,394.123901 149.767899,387.663116 129.633926,374.597290 
	C128.384506,373.786469 127.123718,372.916077 126.100861,371.850189 
	C124.278976,369.951630 124.206497,367.588776 125.242310,365.334839 
	C126.390862,362.835541 128.713531,362.379730 131.182480,362.733551 
	C133.740829,363.100189 135.710831,364.750336 137.818802,366.074341 
	C177.949722,391.280792 231.369812,386.033081 265.036194,352.801239 
	C280.153687,337.878906 285.378448,318.844788 283.263794,297.839081 
	C281.978638,285.073242 277.021973,273.774750 269.069550,263.723450 
	C266.903717,260.985962 265.079803,260.155884 261.606415,262.170868 
	C252.140152,267.662506 242.916183,266.262268 234.762863,259.318024 
	C221.736237,248.223160 215.228836,233.070984 209.608536,217.455917 
	C209.469437,217.069504 209.718643,216.543304 209.890182,215.382217 
	C221.994873,221.829300 234.902435,220.560287 247.660294,220.743546 
	C251.124985,220.793304 254.651123,221.291626 258.024567,222.102158 
	C269.395752,224.834274 275.081512,233.210419 272.970856,244.873383 
	C272.241608,248.902969 273.361603,251.329742 275.868317,254.157486 
	C286.307587,265.933655 292.611115,279.650665 294.361084,295.378418 
	C294.598907,297.515991 295.084503,299.626007 295.817566,301.700256 
	C307.394928,261.665100 302.976593,223.813782 279.767395,188.191559 
z"/>
</svg>